<svg version="1.0" xmlns="http://www.w3.org/2000/svg" width="2240" height="804" viewBox="0 0 1680 603"><path d="M307 85.6c-16.9.9-42.6 6.2-60.6 12.4-4.9 1.7-14.7 6-21.9 9.5-64.8 31.9-109.7 94.2-119 165.2-2 15.2-2 42.4 0 57.6 10.1 77.2 62.2 143.6 135.2 172.6 55 21.7 117.9 19.6 171.8-5.8 67.8-32 114.8-98.4 122.6-173 1.8-17.5.7-45.4-2.5-62.4-9.2-48.5-35.4-93.7-72.5-124.9-38.1-32.1-83.7-49.5-133.6-51.1-7.1-.2-15.9-.3-19.5-.1zm53.8 14.5c5.4 1 6.6 1.7 9.4 5.1l3.1 3.9-1.9 9.2c-1.9 8.9-2 9.2-5.9 11.5-3.1 1.7-4.9 2.1-8.2 1.7-4.6-.7-4.3-1.2-6.4 8.7-1.3 6.2-2.6 7-8.2 4.9l-2.5-1 4.5-21.8c2.4-12 4.6-22.4 4.9-23.2.3-.8 1.3-1.1 2.7-.8 1.2.3 5 1.1 8.5 1.8zm-70.4 1.6c2 7.1 8.6 43.7 7.9 44.3-.4.4-2.5 1.1-4.5 1.4-4 .7-4.1.6-5.4-6.7-.6-3.6-.8-3.8-3.8-3.1-4.4.9-4.4.8-3.2 6.3.5 2.8.7 5.3.4 5.7-.4.3-2.4.8-4.7 1.1-3.6.5-4.1.3-4.6-1.8-.3-1.3-2-9.9-3.9-19.2l-3.3-16.7 2.9-4.8c1.7-2.6 3.1-4.8 3.2-4.9.5-.6 13.2-3.1 15.8-3.2 1.7-.1 2.8.5 3.2 1.6zm132.9 27l1.9 5.8-6.7 12.5c-3.7 6.9-7.2 13-7.9 13.7-.6.6-3.5 1.8-6.5 2.7-5.3 1.6-5.5 1.5-9.6-.9-3.6-2.1-4.4-3.2-5.8-8.1l-1.6-5.7 7.3-13.6 7.3-13.6 5.9-1.6c5.8-1.6 6-1.6 9.9.7 3.4 2 4.3 3.3 5.8 8.1zm-185.6 7.7c8.8 14.6 10.1 16.3 11.7 15.4 2.2-1.2 3.3-.1 7.9 8.2l2.8 4.9-3.2 1.7c-2.7 1.3-3.3 1.4-4 .3-3.1-5.4-2.9-5.4-11.1-.5l-7.7 4.7 2 3.4 2 3.4-3.1 1.6c-1.8.9-3.3 1.5-3.4 1.3-.2-.2-2-3.2-4.1-6.7-3.6-6-3.7-6.5-2-7.7 1.6-1.2 1.2-2.2-6-14.4l-7.7-13.2 1.2-5.9c1.2-5.6 1.5-6 6.9-9.3 3.1-1.9 6.1-3.5 6.8-3.5.7-.1 5.6 7.3 11 16.3zm227.5 19.3c2.5 2.4 2.8 3.3 2.8 9.3 0 5.7-.3 7-2.3 8.8l-2.3 2.2-3.4-3.5-3.4-3.5 2.2-2.3 2.2-2.3-2.6-2.5-2.6-2.4-10.3 11-10.4 11 2.4 2.4 2.4 2.5 2.6-2.4 2.6-2.4 3.1 3.2 3.2 3.1-2.4 2.6c-2 2.1-3.2 2.5-8.4 2.5-5.4 0-6.3-.3-9.3-3.2-3-2.9-3.3-3.7-3.3-9.2v-6.1l10.7-10.7 10.8-10.8h6.4c5.7 0 6.8.3 9.3 2.7zM348 159.5c4.7.9 12.6 3 17.5 4.6 10.7 3.4 30.1 12.9 29.8 14.5-.1.7.5 1 1.6.7.9-.2 2.3.3 3 1.1 1.1 1.3.9 1.7-1.3 2.7-2.2 1.1-3.7.6-12.9-3.9-22.9-11.1-38-14.6-63.7-14.7-20.5 0-30.7 1.6-47.9 7.7-47.5 16.7-83.6 59.6-91.8 108.9-1.4 8.9-1.8 9.8-4.1 10.4-1.3.3-2.7.4-3 .1-.6-.7 1.5-16.3 2.5-17.9.4-.6.8-2 .9-3.1 1.3-12.3 10.1-32.9 21-49.2 3-4.5 9.7-12.8 15-18.3 23.6-24.8 51.6-39.5 85.4-44.7 11-1.7 36.7-1.1 48 1.1zm-160.1 4.1c3.4 3.1 5.1 5.4 5.1 7 0 2 .5 2.4 3.3 2.4 2.4 0 4.3 1.1 8 4.6 4.3 4.2 4.7 4.9 4.7 9.3 0 4.2-.5 5.4-4.1 9.5-3.8 4.3-4.4 4.6-9 4.6-3.9 0-5.4-.5-7.8-2.8l-3-2.7 2.8-3.3c2.9-3.4 2.9-3.4 5.6-1.6 2.6 1.7 2.7 1.7 5.2-.8l2.5-2.5-4.8-3.9-4.7-3.9-1.5 2.3c-1.8 2.8-3.3 2.8-6-.1l-2.2-2.4 2-1.8c2.8-2.6 2.5-3.7-1.9-7.3l-4-3.2-2.1 2.7-2 2.6 2 2.2 2 2.1-3.3 3.2-3.3 3.2-2.7-2.8c-2.2-2.3-2.7-3.7-2.7-7.8 0-4.5.4-5.4 3.8-8.6 6.5-6.3 11.2-6.4 18.1-.2zm116 59.7l-12.2 43.4 2.8 3.7 2.8 3.7-2.4-.5c-1.3-.3-20.8-2.6-43.4-5.1-55.1-6.1-54.1-5.9-37-6.8 7.7-.4 26.8-1 42.4-1.3l28.3-.7 1.7-4.1c.9-2.3 7.8-20.4 15.1-40.3 7.4-19.9 13.6-36 13.8-35.8.2.2-5.1 19.9-11.9 43.8zM411 188.2l6.4 5.2-2.9 1.2c-2.7 1.1-3.3.9-6.5-1.5-1.9-1.5-5.2-3.8-7.2-5.1-3.9-2.6-3.9-3.5.2-4.3 1.4-.2 2.7-.5 3-.6.3 0 3.4 2.2 7 5.1zm8 7.7c-2.8 1.6-6 2.2-6 1.2 0-.9 2.4-1.7 6-1.9 1.3-.1 1.3 0 0 .7zm73.9 1.5c4.8 1.4 9.1 6.2 9.1 10.1 0 4.5-3.1 11.1-5.9 12.8l-2.9 1.7-2.1-3.4c-2.7-4.2-2.6-5.3.2-6.7 1.2-.6 2.3-1.3 2.5-1.4.2-.2-.4-1.7-1.3-3.5l-1.6-3.1-4.2 2.4c-2.3 1.4-8.1 4.6-12.9 7.2-4.9 2.6-8.8 5.2-8.8 5.9 0 .7.6 2.1 1.4 3.1 1.2 1.7 1.7 1.8 4.1.7 3.2-1.5 4-1 6.1 3.1 1.6 3 1.6 3.2-.6 4.9-2.7 2.2-4.2 2.2-10.6.3-4.2-1.2-5.2-2.1-7.2-5.7-2.2-4.3-2.2-4.3-.4-9.8l1.8-5.5 13-7.2c7.1-4 13.6-7.3 14.4-7.3.8 0 3.5.6 5.9 1.4zm-69.2 2.2c.6 1.7-4.6 2.7-6.3 1.3-1.2-1-1.2-1.4-.2-2.1 1.7-1.1 6.1-.6 6.5.8zm-277.4 3c1.8.9 3.3 1.8 3.5 1.9.2.2-.6 2.1-1.7 4.4-1.2 2.2-2.1 4.4-2.1 4.9 0 .4 2 1.8 4.4 2.9l4.4 2.2 1.7-4c2-4.4 2.4-4.5 6.6-2.4l2.9 1.6-2 3.9c-1.1 2.2-2 4.1-2 4.3 0 .5 9.5 4.7 10.4 4.7.3 0 1.5-1.9 2.7-4.3 1.2-2.3 2.3-4.3 2.4-4.5.3-.3 6.4 2.5 7.3 3.3.6.6-8.1 18.6-8.8 18.3-4.7-1.9-42-20.4-42-20.9 0-1.2 8-17.9 8.5-17.9.3 0 2 .7 3.8 1.6zm280.7 2.8c0 .2-.9.6-2 .9-1.1.3-2 .1-2-.4s.9-.9 2-.9 2 .2 2 .4zm3.5 3.5c-.8 1.3-5.5 1.5-5.5.2 0-.5 1.2-1.1 2.8-1.3 3.2-.4 3.6-.3 2.7 1.1zm3.5 1.5c0 .2-1.3.9-3 1.5-1.6.5-3 .6-3 .1 0-.7 1-1.1 5.3-1.9.4 0 .7.1.7.3zm4 9c0 .2-.7.6-1.5 1-.8.3-1.5.1-1.5-.4 0-.6.7-1 1.5-1s1.5.2 1.5.4zm5.5 8.1c-1.6.7-3.2 1.1-3.5.9-.7-.8 2.4-2.4 4.5-2.3 1.5 0 1.3.4-1 1.4zM452 238c0 1.6-4.4 3-5.2 1.7-.4-.7-.2-1.5.5-1.9 1.7-1.1 4.7-1 4.7.2zm3 6.7c0 1.8-4.1 2.7-5.1 1.2-1.3-2.2-1.1-2.9 1.4-3.8 2.2-.9 3.7.1 3.7 2.6zm63.6 4c.3 1.6.7 3.3.9 4 .5 1.4.4 1.4-16 4.9-7.1 1.4-13.1 2.7-13.3 2.9-.1.1 4.7 1.2 10.8 2.5 9.1 1.9 11.9 2.1 15.6 1.3 4.3-1 4.6-.9 5.5 1.4 2.1 5.7 2.5 5.5-21.9 10.5-12.5 2.5-23 4.3-23.3 4-.4-.4-1-2.1-1.4-3.9-.7-3.6-.7-3.6 13-6.4 6.8-1.4 7.1-1.2-7.8-4.4-8-1.8-8-1.8-8.9-7.9-.3-1.7 2-2.4 22.2-6.6 12.4-2.7 22.8-4.8 23.2-4.9.4-.1 1 1.1 1.4 2.6zm-60.7 2.7c-1.2 1-4.9 1.6-4.9.7 0-.5 1-1.1 2.3-1.3 2.2-.4 3.4-.1 2.6.6zm-321.4.6c2.2.5 4.7 1.8 5.7 3 2 2.4 2.6 2.5 4.9.4 1.6-1.4 2.6-1.5 8.3-.3 7.6 1.5 7.5 1.4 10.5 5.7l2.3 3.3-1.8 9.4c-1.3 7.2-2.1 9.5-3.3 9.5-2.6-.1-44.2-8.7-44.8-9.4-.3-.3.1-4.3 1-8.8 1.4-7.1 2.1-8.7 4.9-11.1 3.4-2.9 5.9-3.2 12.3-1.7zm322.5 3c0 .5-.4 1-.9 1s-1.6.3-2.5.6c-.9.3-1.6.1-1.6-.4 0-.9 1.6-1.7 4.3-2.1.4 0 .7.3.7.9zm-125.6 18.1l6.3 15.4 17.9.5 17.9.5-13.7 10.9c-7.6 6-13.8 11.3-13.8 11.8 0 .6 2.5 7.9 5.5 16.4 3 8.5 5.5 15.9 5.5 16.5 0 .5-6.7-3.5-14.8-9l-14.8-9.9-14.4 10.9c-8 5.9-14.8 10.8-15.1 10.9-.4 0 1.5-7.5 4.2-16.8 2.7-9.2 4.9-17.2 4.9-17.7 0-.6-6.5-5.3-14.5-10.5s-14.5-9.8-14.5-10.1c0-.4 5.5-.9 12.3-1.3 6.7-.4 14.5-.9 17.4-1.2l5.2-.6 5.2-15.7c5.5-16.5 5.9-17.5 6.5-16.8.3.2 3.3 7.3 6.8 15.8zm75.9-13.5c14.3.4 25.3 1 24.5 1.4-.7.4-15.7 1.2-33.3 1.9-17.6.6-34.8 1.4-38.2 1.7-6.1.6-6.2.6-7.7-2.4-.9-1.7-1.6-3.4-1.6-3.8 0-.4 6.9-.4 15.3-.1 8.3.4 26.8 1 41 1.3zm52.7 1.6c0 .3-1.3 1.1-3 1.7-2.4.8-3 .7-3-.5 0-.7 0-1.7-.1-2.2-.1-1.2 4.5-1.9 5.3-.8.4.6.8 1.4.8 1.8zm1 3.2c0 .2-1.3.9-3 1.5-1.6.5-3 .6-3 .1 0-.7 1-1.1 5.3-1.9.4 0 .7.1.7.3zm.3 4.6c-1.5 1.4-5.3 2.2-5.3 1 0-1.2 4.1-3 5.3-2.3.5.3.5.9 0 1.3zm1.7 4.5c0 1.4-.6 2.5-1.2 2.6-.7 0-.4.4.6.8 1.8.7 1.6.9-1.1 1.8-2.8 1-3.2.9-3.7-1-1-3.8-.7-5.5 1.2-6 3.5-.9 4.2-.7 4.2 1.8zm1 7.4c0 .5-.6 1.2-1.2 1.4-.7.3-.4.6.7.6 2.2.1 1 1.6-2.1 2.5-2.8.8-4.1-2.9-1.6-4.4 2.2-1.2 4.2-1.3 4.2-.1zm1.3 7.8c.4 1.6.5 10.4.3 19.8-.4 22.2-3.2 35.5-11.3 54.4-26.9 62.7-93.2 98.4-160.6 86.6-17.3-3-45.5-14-44.2-17.2.3-1-.1-1.3-1.5-.8-1.3.4-4-.8-8.6-3.9l-6.8-4.5 2.8-1.1c3.7-1.4 4.4-1.3 7.5.9 5.8 4.2 21.2 11.3 31.3 14.6 34 11 68.6 9.5 100.9-4.4C428.4 411 462 359.9 462 304c0-12.2.1-12.7 2.3-13.8l2.2-1.2-2.4.3c-2.8.2-4-1.9-1.4-2.6 3.5-.9 4.1-.7 4.6 2zm-286.7 5.1c-.7 1.2-5.6 2.2-5.6 1.1 0-.8 5.2-2.9 5.9-2.3.1.1 0 .7-.3 1.2zm-.6 9.2c0 6.2-.2 7-1.9 7-3.3 0-4.3-5.5-1.1-6.3 1.1-.3 2-1 2-1.6 0-.7-1-.9-2.5-.5-2.1.5-2.5.3-2.5-1.5 0-1.9 2.5-3.8 5.3-4 .4-.1.7 3 .7 6.9zm324.5.3l21 2.2-.3 4c-.2 2.2-.5 4-.5 4.1-.1.1-5.6-.5-12.2-1.2-19.4-2.1-19.3-2.1-8.5 4 6.6 3.7 11.2 5.6 14.9 6.1l5.3.7-.5 3.5c-.4 2-.8 3.7-1 4-.3.2-10.9-.6-23.6-1.9l-23.2-2.2.3-4.1c.3-4.5-.6-4.3 12.8-3.1l7.5.6-8.5-4.9c-11.4-6.7-10.8-6.1-10.3-10.4.6-4.5-1.5-4.3 26.8-1.4zM160.2 307c3.2 2.6 3.7 3.7 4.3 9 .6 5.5.5 6.2-2.1 9.9-2.3 3.1-3.7 4-6.9 4.4-4.9.7-5.7 0-5.3-4.9.3-3.4.6-3.9 3.1-4.2 2.3-.3 2.7-.8 2.7-3.3 0-3.6-1.6-4.3-7.5-3.5-4.3.7-4.5.8-4.5 4.2 0 3.5-.1 3.5-3.7 3.2-3.3-.3-3.8-.6-4.1-3.2-.3-2.8-.5-2.8-5.3-2.4-2.7.3-5.2.7-5.4 1-.3.3-.2 1.9.1 3.7.6 2.7 1.1 3.2 3.3 2.9 2.3-.3 2.6.1 3.2 3.7.4 2.2.5 4.3.2 4.7-.2.5-2.2.8-4.4.8-3.1 0-4.7-.7-7.4-3.3-3-2.8-3.5-3.9-3.7-8.7-.2-4.7.1-6.1 2.5-9.2 2.5-3.3 3.3-3.6 9.3-4.3 5.5-.6 6.9-.4 8.5 1.1 1.9 1.7 2.1 1.7 4.2-.9 2.1-2.5 3.5-2.9 12.7-3.5 1.5-.1 4 1 6.2 2.8zm20.4 6.1c.3.6 0 1.5-.7 2-2.2 1.3-4.9 1.1-4.9-.5 0-2.3 4.3-3.5 5.6-1.5zm93.5 9.2l2.7 2.2-16.6 38.7c-9.1 21.4-16.7 38.6-16.9 38.4-.8-.8 26.2-81.6 27.2-81.6.6 0 2.2 1 3.6 2.3zm-92.5 3.5c-.7 1.2-5.6 2.2-5.6 1.1 0-.8 5.2-2.9 5.9-2.3.1.1 0 .7-.3 1.2zm3.4 14.7c0 .9-1 1.9-2.2 2.4-4 1.5-5.4-.8-1.5-2.7 3.1-1.5 3.7-1.4 3.7.3zm3 10.4c0 .5-1.2 1.1-2.7 1.4-2.6.5-2.6.4-.8-.9 2.2-1.6 3.5-1.8 3.5-.5zm170.8 27.2c26 21.3 28.5 23.4 23.7 20.4-3.4-2.1-51.5-36.3-53-37.7-1.1-1 1-2.8 3.3-2.8.7 0 12.4 9.1 26 20.1zm-187.2.8l-.7 6.8 6.6 2.8c7.2 3.1 7.1 4-.5 5-6.4.9-7 1.4-7.6 7.6-.9 8.7-1.2 8.8-5 2.1-1.9-3.4-3.8-6.2-4.2-6.2-.4 0-3.4.7-6.7 1.4-3.3.8-6.2 1.3-6.4 1.1-.2-.2 1.7-2.7 4.3-5.6 5-5.6 5-5-.1-13.2-1.4-2.2-2.2-4.1-2-4.4.3-.2 2.8.7 5.6 2.1 2.8 1.4 5.6 2.6 6.4 2.6.7 0 3.3-2 5.7-4.5 2.4-2.5 4.6-4.5 4.8-4.5.3 0 .2 3.1-.2 6.9zm301.4-2l4.2 5 5.7-2.6c3.1-1.3 6.3-2.8 7.1-3.1 1.2-.5-.4 2.9-5.4 11-.9 1.5-.2 2.7 3.9 6.8 2.7 2.7 4.7 5.2 4.4 5.4-.2.2-3.1-.2-6.4-1-3.3-.7-6.3-1.4-6.7-1.4-.4 0-2.2 2.5-3.9 5.5-1.7 3-3.4 5.7-3.9 6-.4.2-1.1-2.7-1.4-6.5-.8-7.5-.6-7.3-8.1-8.6-7.1-1.2-7.1-1.9-.1-4.9l6.6-2.8-.6-5.6c-.3-3.1-.7-6.2-1-6.9-.8-2.6 1.7-1 5.6 3.7zM209 390c0 1.1-4.8 2.5-5.7 1.6-.3-.3.5-1 1.8-1.5 3.2-1.3 3.9-1.3 3.9-.1zm12 14c0 .5-.8 1-1.7 1-1.5 0-1.6-.2-.3-1 1.9-1.2 2-1.2 2 0zm249.9 36.6c.1.5-1.3 2.3-2.9 3.9l-3 2.9-4.3-4.2-4.3-4.2-2.2 2.3c-2.9 3.1-2.8 3.5 1.3 7.7l3.5 3.6-3.4 3.3-3.3 3.2-13.7-14.3-13.6-14.3V425c0-5.4.1-5.5 6.7-12.2l6.8-6.8 16.2 16.7c8.9 9.3 16.2 17.3 16.2 17.9zm-265.8-31l2.6 2.5-2.8 9.2c-1.6 5-2.9 9.4-2.9 9.8 0 .4 4.3-.9 9.5-2.9l9.5-3.5 3 2.8 3 2.8-5.7 6.1c-3.2 3.4-10.6 11.2-16.6 17.4l-10.9 11.4-2.9-2.8c-1.6-1.5-2.9-3.2-2.9-3.8 0-.6 4.2-5.2 9.2-10.3 5.1-5.1 8.8-9.3 8.2-9.3-.5 0-3.8.9-7.3 2.1-3.4 1.2-6.5 1.8-6.8 1.5-.4-.3.1-3.3 1-6.6 1-3.3 1.7-6.5 1.7-7.1 0-.7-4.2 3.2-9.4 8.7l-9.4 9.9-3.3-3.2-3.4-3.3 6.5-6.7c14.2-14.9 26.5-27.3 26.9-27.3.3 0 1.7 1.2 3.2 2.6zm20.4.4c-2.7 1.2-4.3 1.2-2.5 0 .8-.5 2.2-.9 3-.9 1 0 .8.3-.5.9zm5.5 2.9c0 1.1-6.1 2.1-7.5 1.3-.5-.3.1-.9 1.5-1.3 3.7-1 6-1 6 0zm6.1 4.8c.8.9.9 1.4.3 1-.6-.3-2.5-.2-4.2.2-4 1.2-5 .1-1.5-1.5 3.7-1.7 3.9-1.7 5.4.3zm163.1 23.5c3.4 1 4.4 2 6.9 6.9 2.3 4.7 2.7 6.3 1.9 8.4-.9 2.3-.7 2.6 2 3.2 2.4.4 3.6 1.8 6.4 7l3.5 6.5-1.7 4.5c-1.5 4-2.5 4.8-9.9 8.8-6.1 3.3-8.4 4.1-9 3.2-.4-.6-5.4-10.2-11-21.2l-10.1-19.9 7.6-4.3c8.8-4.8 8.2-4.7 13.4-3.1zm-144.3 4.4c3.2 1.3 4.3 2.4 6 6.6 1.2 2.8 2.1 5.6 2.1 6.2 0 .6-2.8 7.2-6.1 14.8l-6.2 13.6-5.7 2.1c-5.5 2-5.8 2-9.8.3-3.4-1.4-4.5-2.6-6.2-6.6-1.1-2.7-2-5.6-2-6.5 0-.9 2.7-7.7 6.1-15.2l6.1-13.6 4.7-1.6c6-2 6.4-2 11-.1zM359 456.7c0 1-.9 5.5-1.9 10l-1.9 8.3 4.7 3.3 4.7 3.4 1.7 9.8c1 5.4 1.6 9.9 1.4 10.1-.1.2-2.3.4-4.7.6l-4.4.3-1.7-8.8c-.9-4.9-2.2-9.3-3-9.8-1.6-1-4.3-1.2-5.1-.4-.3.3.3 4.9 1.3 10.3.9 5.3 1.4 10 1.1 10.3-.4.4-2.5 1-4.7 1.3l-4 .7-4.2-23.3c-2.2-12.8-4-23.4-3.9-23.5.2-.2 2.3-.6 4.8-.9l4.5-.6 1.4 8.2c1.5 9.3 2.1 8.8 3.9-2.7 1-6.1 1.5-7.2 3.3-7.6 5-1 6.7-.7 6.7 1zm-50 6.5c3.3 4.2 3.8 5.5 3.3 8.1-.3 1.8-.7 3.4-.9 3.6-.2.2-2.3 0-4.6-.5-4-.9-4.3-1.1-4-4 .3-2.8 0-3.2-2.9-3.8-1.8-.3-3.4-.5-3.5-.3-.2.1-1.1 6.9-2.2 15l-1.8 14.8 2.3.5c3.6.9 5.3-.2 5.3-3.6 0-3 .1-3.1 3.8-2.5 5.8 1 5.8 1.1 5.4 4.8-.3 2.7-1.4 4.2-5.2 7.1-4.5 3.5-5.2 3.7-9.5 3-3.9-.5-5.1-1.3-8-5.2-1.9-2.5-3.5-5-3.5-5.6 0-1.6 3-25.9 3.5-28.2.3-1.2 2.5-3.7 5-5.6 3.9-2.8 5.2-3.3 9-3 4 .4 4.9.9 8.5 5.4z"/><path d="M356.1 114.7c-1.6 7.9-1.5 8.3 1.8 8.3 2.6 0 2.9-.4 4-5.7 1.6-7.9 1.5-8.3-1.8-8.3-2.6 0-2.9.4-4 5.7zm-79.3-3c-1.5 1.6-1.5 2.5 0 10 1.5 7.8 1.7 8.3 4.1 8.3 5 0 5.3-.8 3.3-10.6-1.5-7.4-2.1-8.9-3.8-9.2-1.1-.2-2.7.5-3.6 1.5zm126 28.2C399 147 396 153 396 153.3c0 .2 1.4 1 3.1 1.7 2.6 1.1 3.2 1.1 4-.1 2.2-3.4 12.9-23.8 12.9-24.7 0-.8-4.3-3.2-5.8-3.2-.4 0-3.7 5.8-7.4 12.9zm-180.7-7c-1.2 1.2-2.1 2.4-2.1 2.8 0 .5 3.3 6.3 7.3 13l7.3 12.2 2.5-1.6c1.3-.9 2.5-1.7 2.7-1.8.1-.1-3.3-6.2-7.7-13.5l-7.9-13.2-2.1 2.1zm198.7 66.8c.7.3 1.6.2 1.9-.1.4-.3-.2-.6-1.3-.5-1.1 0-1.4.3-.6.6zm-292.1 63c-.7 3.6-.2 4 5.4 4.8 4.5.7 4.6.6 5.2-2.2.7-3.6.2-4-5.4-4.8-4.5-.7-4.6-.6-5.2 2.2zm18.9 1.2c-.2.3-.6 1.8-1 3.3-.6 2.6-.4 2.7 5 3.8 3 .7 5.8 1 6 .7.3-.2.6-1.7.7-3.2.2-2.6-.2-2.9-5.1-4-2.9-.7-5.4-.9-5.6-.6zm173.8 14.3l-4.9 14.3-14.2.9c-7.9.5-14.3 1.1-14.3 1.5 0 .3 5.4 4.2 12 8.6 6.5 4.4 11.9 8.4 12 8.8 0 .5-1.8 7.1-4 14.7s-4 14.1-4 14.4c0 .4 5.7-3.6 12.6-8.8l12.6-9.5 2.6 1.7c1.5.9 6.8 4.4 11.7 7.8 5 3.3 9.5 6.4 10.2 6.8 1 .5-2.8-11.3-7.6-23.7-.6-1.6-1.1-3.4-1.1-4.1 0-.7 5.2-5.3 11.5-10.2 6.3-4.9 11.4-9.2 11.5-9.6 0-.4-6.8-.9-15.2-1l-15.2-.3-5.1-12.7c-2.8-7-5.3-13-5.7-13.3-.3-.3-2.8 5.8-5.4 13.7zm10.3 6.5l3.9 9.8 11.7.5 11.7.5-9 7c-5 3.8-9 7.2-9 7.5 0 .3 1.6 4.9 3.5 10.4 2 5.4 3.4 10.1 3.1 10.3-.2.3-4.5-2.3-9.4-5.6l-9.1-6.1-9.3 6.9c-5.1 3.8-9.5 6.8-9.6 6.6-.3-.3 2-9 5.4-20.6.3-1.2-2.3-3.4-9.3-8l-9.7-6.4 6-.6c3.2-.4 8.4-.7 11.5-.8l5.5-.1 3.4-10.5c1.9-5.8 3.7-10.5 4.1-10.5.4 0 2.4 4.4 4.6 9.7z"/><path d="M324.5 287.1c-1.5 4.6-3.2 9-3.8 9.6-.6.8-3.6 1.3-8.1 1.3-12.1 0-12 .2 4.7 11.1.6.4-.1 4.1-1.7 9.5-1.4 4.8-2.4 8.9-2.2 9.2.3.2 3.8-2.2 8-5.3l7.5-5.6 7.5 5c4.1 2.8 7.7 5.1 8 5.1.3 0-.9-4.1-2.6-9.1-2-5.7-2.8-9.3-2.2-9.7.6-.4 3.9-3 7.5-5.7l6.4-5-9.5-.5-9.5-.5-3.6-8.9-3.6-8.9-2.8 8.4zm111.2 133.7c-2.8 3.1-2 5.5 4.3 11.7l6 5.9 2.7-2.7 2.8-2.7-7.1-7.1c-6.8-6.7-7.1-6.9-8.7-5.1zm-41.4 29.4c-2.8 1.3-2.8 1.9-.3 6.8 2.3 4.5 2 4.4 5.5 2.8 3-1.4 3.1-1.8.5-6.8-2.2-4.3-2.4-4.4-5.7-2.8zm8.5 16.4L400 468l2.7 5.5 2.7 5.4 2.8-1.5c1.5-.8 2.8-1.7 2.8-2 0-.6-5-10.4-5.3-10.4-.1.1-1.4.7-2.9 1.6zm-160.4-.8c-6.1 13.6-6.1 13.7-4 14.9 4.2 2.4 5 1.6 10.9-11.6 3.1-7.1 5.7-13.3 5.7-13.9 0-.7-5-3.2-6.4-3.2-.1 0-2.9 6.2-6.2 13.8zM374.8 87.7c.7.3 1.6.2 1.9-.1.4-.3-.2-.6-1.3-.5-1.1 0-1.4.3-.6.6zm14 4c.7.3 1.6.2 1.9-.1.4-.3-.2-.6-1.3-.5-1.1 0-1.4.3-.6.6zM407 99c3 1.6 6.6 2.9 8 2.9 1.9 0 1.4-.5-2.5-2.3-8.1-3.7-12-4.1-5.5-.6zm10.4 4.9c.3.4 2 1.4 3.8 2.1 1.8.8 4.5 2.2 6.1 3.2 1.5 1.1 3.5 1.8 4.5 1.6 1.1-.2-.6-1.6-5-4.1-6.2-3.5-10.6-4.8-9.4-2.8zm18.9 10.7c2.1 1.4 4.6 2.4 5.5 2.2 1.3-.2.8-.9-1.9-2.6-5.3-3.2-8.4-2.9-3.6.4zm7.7 4.8c0 .2 1.9 1.6 4.2 3.2 18.5 12.6 42.4 37.5 55.8 58.4 4.8 7.4 13.6 22.9 14.8 26 .5 1.4 2.1 5 3.5 8.1 5.5 12 10 26.2 13.3 42.2 1.3 6.6 2.4 12.9 2.4 14.1 0 2.3 1.6 5.3 2.4 4.6.7-.8-3-21.7-5.8-32.5-7.5-28.4-22.5-57.8-42-82.1-11.8-14.7-42.5-42.4-47-42.4-.9 0-1.6.2-1.6.4zm135.4 125.9c-6.1 1.6-11.6 4.8-13.8 8.2-2.8 4.2-4.6 13.5-4.6 23.2v9.3h14.9c17.2 0 16.1.8 16.1-11.5 0-7.8.9-9.5 5.2-9.5 4.7 0 6.1 3.5 5.6 14-.5 11.6-1.7 13.1-11.5 13.9l-6.8.6-.3 6.5c-.2 3.6 0 8 .3 9.7.6 3.2.8 3.3 5.3 3.3 6.1 0 9.3 1.7 11.5 6 1.5 2.9 1.8 5.5 1.5 16.1-.2 8.8-.7 13.1-1.7 14.2-1.8 2.2-7.7 2.2-8.5.1-.3-.9-.6-7.1-.6-13.9 0-6.8-.3-13-.6-13.9-.5-1.4-2.9-1.6-15.7-1.6h-15l.6 14.2c.3 7.9 1 16.4 1.7 19 1.6 6.2 6.8 12 13.8 15.5 5.5 2.7 6.3 2.8 20.2 2.8 13 0 15-.2 19.5-2.3 13.4-6.2 17.1-15.7 16.3-41.9-.5-16.5-1.5-20.2-6.8-24.7l-3.3-2.7 3.6-3.7c4.3-4.5 5.7-9.3 5.7-19.3 0-16-5.8-26.3-17.2-30.5-5.8-2.2-28.4-2.8-35.4-1.1zm507.6 62.6V370h32v-48.7l10.3-.5c16.1-.7 23.6-5.4 25.4-15.6 1.3-7.4.8-38-.6-43.2-1.8-6.1-7.2-11.3-14.1-13.5-4.4-1.4-10.3-1.9-29.2-2.3l-23.8-.4v62.1zm38.3-37.8c3.4 1.8 3.7 2.7 3.7 13.6 0 11.6-1.3 14.3-7 14.3h-3v-14.5c0-14 .1-14.5 2.1-14.5 1.1 0 3 .5 4.2 1.1zM103.6 250.6c-.6 2.4-.2 4.4.8 3.3.9-1.1 1.5-5.9.7-5.9-.5 0-1.2 1.2-1.5 2.6zm-.8 5c-.5.4-.8 1.6-.8 2.8 0 1.4.3 1.7 1.1.9.6-.6.9-1.9.7-2.8-.1-.9-.6-1.3-1-.9zm-1.8 8.3c-1.2 2.4-1.4 9.9-.1 8.5 1-1 2.5-10.4 1.7-10.4-.3 0-1 .9-1.6 1.9zm647 3.4c-10.9 2.6-17.1 7.3-21.2 16.2-2.2 4.9-2.3 5.8-2.3 35.5v30.5l2.8 5.7c5.5 11.3 14.9 16.1 31.7 16.2 16.9.2 25.9-4.4 31.6-16.1 2.5-5 2.9-7.1 3.2-17.5l.4-11.8H765v10.8c0 12.3-1.2 15.5-5.8 15-4.2-.5-5.2-3.8-5.2-17.6V322h40v-11.3c0-20.8-3.2-30.7-11.9-37.3-7.8-6-22.9-8.7-34.1-6.1zm13.9 20.1c.7.8 1.3 4.7 1.4 8.8l.2 7.3h-9l.1-7.8c0-5.7.4-8.1 1.5-8.8 2.1-1.3 4.5-1.1 5.8.5zm240.1-19.9c-8.8 2-16.6 7.4-19.9 13.9-2.1 4.1-2.5 6.6-2.9 16.2l-.5 11.4h28.3v-8.8c0-12.2 3.1-17.1 8.1-12.6 2.7 2.4 2.8 15.3.2 17.7-1 .8-7.5 4-14.5 7-21.9 9.3-21.3 8.5-21.3 30.2 0 19 1.1 22.4 8.6 26.3 9.8 5 20.7 3.6 26.9-3.4l3-3.5v8.1h30.2l-.5-40.3c-.3-26.1-.9-41.9-1.7-45.1-1.7-6.8-8.7-13.9-16.1-16-7.9-2.4-20.2-2.8-27.9-1.1zm13.9 83.1c-.6.8-2.2 1.4-3.4 1.4-3.8 0-5-2.6-4.9-10.9 0-8.5 1.6-12.6 6.1-15.9l2.8-2 .3 13c.2 8.7-.1 13.5-.9 14.4zM1189 267c-9.9 1.7-18.7 7.9-22.2 15.7-3.4 7.7-4.7 34.6-2.9 58.6 1.5 18.7 7 26.1 22.1 29.3 9.4 2 21.4 1.3 29.3-1.6 4-1.5 6.9-3.5 10.2-7.2 7.3-8.1 7.9-11.5 8-43.3 0-30-.6-33.5-6.6-40.8-7.4-9-22.7-13.3-37.9-10.7zm13 20.9c.6 1.2 1 12.9 1 31.1 0 18.2-.4 29.9-1 31.1-.6 1.1-2.1 1.9-3.5 1.9s-2.9-.8-3.5-1.9c-.6-1.2-1-13-1-31.5 0-25.4.2-29.7 1.6-31 2.1-2.2 5.1-2 6.4.3zm66-20.9c-11.1 2.4-20.7 9.9-23.2 18.2-.9 3.1-1.3 12.2-1.3 32.8 0 24.6.2 29.3 1.8 34.3 2 6.5 7.1 12.9 12.6 15.6 10.8 5.5 28.8 5.3 38.6-.4 10-5.8 14.1-14.1 14.8-29.8l.5-10.7h-26.5l-.6 10.2c-.3 5.7-.9 11.1-1.2 12.1-1.2 2.8-5.3 3.3-7.8.8-2.2-2.1-2.2-2.8-2.2-31.5 0-30.9.2-32.6 4.6-32.6 3.5 0 4.9 3.8 4.9 13.2v8.8h14.5c13.1 0 14.5-.2 14.5-1.8 0-6.6-2.4-20.4-4.1-23.9-2.7-5.5-8.8-10.8-15.7-13.3-6.3-2.4-17.8-3.3-24.2-2zm77.7 0c-7.1 1.3-15.2 5.5-19.1 10.1-5.5 6.5-6.1 10.2-6.1 40.4 0 30.5.8 36.1 5.9 42.8 6.5 8.6 13.1 11.1 28.6 11.1 13 0 18.8-2.2 25.5-9.6 5.4-6 7.2-11.4 8.1-24.6l.7-10.2h-27l-.5 10.2c-.6 12-1.1 13.6-4.6 14.5-1.9.4-3 .1-4.4-1.7-1.7-2-1.8-4.6-1.8-31.9 0-30.8.2-32.1 4.1-32.1 3.5 0 4.9 3.9 4.9 13.2v8.8h14.5c16.8 0 15.3 1.4 13.5-12.9-1.4-10.9-3.3-15.3-8.7-20.1-7.9-6.9-21.6-10.2-33.6-8zM645 319.1v51.1l26.3-.4c21-.4 27.2-.8 31.4-2.1 6-2 9.7-5.9 11.4-12 1.6-5.7 1.6-23.3.1-27.9-1.2-3.4-6.3-8.9-10.6-11.3-1.6-.9-1.4-1.3 2-3.5 6.2-4.1 7.6-7.8 7.2-19.5-.3-8.8-.7-10.6-3.1-14.7-5.2-8.9-13-10.8-43.9-10.8H645v51.1zm38.6-26c1.9 1.6 1.8 7.8-.3 10.1-.9 1-3 1.8-5 1.8H675v-14.3l3.6.6c2 .3 4.2 1.1 5 1.8zm-.8 34.5c1.9 1.3 2.2 2.4 2.2 8.3 0 7.9-1.2 9.9-6.3 10.8l-3.7.6V326h2.8c1.5 0 3.8.7 5 1.6zm140.4-58.1c-12.5 2.8-17.4 8.4-19.3 22-1.8 13-2.3 12.5 14.1 12.5h14v-5.5c0-4.2.5-6 2-7.5 2.3-2.3 4.9-2.6 7.3-.8 2.3 1.7 3.2 10.5 1.5 13.8-1.2 2.2-2.2 2.6-7.8 3l-6.5.5v16l6 .7c7.6 1 9.5 3 9.5 10.2-.1 6.5-1.5 12.6-3.2 13.7-2.1 1.4-5.5 1-6.9-.7-.9-1.1-1.6-5.2-1.9-10.8l-.5-9.1-13.8-.3c-11.8-.2-13.8 0-14.3 1.3-1.3 3.2 1.4 24.2 3.7 29 3.9 8.3 13.6 12.5 29.2 12.5 17.4 0 27.7-4.7 33.1-15.3 2.6-5.1 2.9-6.6 3-15.9.1-12.3-1.2-16.8-6-20.5l-3.5-2.6 3-3.1c1.6-1.7 3.5-4.4 4-5.9 1.4-3.7 1.4-17.1 0-22.2-1.6-5.8-8.1-11.9-14.9-14-7.6-2.3-23.9-2.8-31.8-1zm76.4 10.2c-1.5 27.5-5 47.4-10.4 58.3-2.4 4.8-3.1 5.5-5.9 5.8l-3.3.3V389h20v-19h52v19h20v-45h-6v-36.4c0-20-.3-37.1-.6-38-.5-1.4-4.4-1.6-32.9-1.6h-32.3l-.6 11.7zm35.4 38.8V344h-8.1c-7.1 0-8-.2-7.5-1.6 3.5-9 7.5-32.3 7.6-43.2V293h8v25.5zm463 .5v51.1l14.1-.3 14-.3 10.2-25.7c5.6-14.2 10.6-25.8 11.1-25.8s.7 10.2.4 24.2c-.2 13.4-.3 25.1-.1 26 .4 1.6 1.9 1.8 13.4 1.8h12.9V267.9l-14.1.3-14.1.3-10.4 26-10.3 26v-24.7c-.1-13.5-.4-25.3-.7-26.2-.5-1.3-2.7-1.6-13.5-1.6H1398v51zm87 0v51.1l14.1-.3 14.2-.3 10.1-25.7c5.6-14.2 10.4-25.8 10.9-25.8.4 0 .7 11.7.7 26v26h26V267.9l-14.1.3-14.1.3-10.2 26-10.1 25.9-.3-26.2-.2-26.2h-27v51zM98.5 280.2c-1.4 8-.8 38.8.9 51.3 3.5 24.6 10.3 46.8 21.6 69.5 7.3 14.8 20 34.5 27.3 42.2.6.7 3.7 4.2 6.8 7.8 12.4 14.3 47.6 42 53.3 42 1.3 0-.9-1.9-5.9-5.1-41.1-26.3-73.5-66.8-89.8-112.4-9.4-26.2-13.1-49.6-12.5-79.2.3-19.6-.2-24.9-1.7-16.1zm441.2-2.5c-1.1 1-.8 5.1.3 5.8.6.4 1-.8 1-2.9 0-3.7-.2-4.1-1.3-2.9zm.3 8.8c0 .8.5 1.5 1 1.5.6 0 1-.7 1-1.5s-.4-1.5-1-1.5c-.5 0-1 .7-1 1.5zm.1 8.5c0 3.7.3 5.9.9 5.5 1.1-.7 1.1-11.5 0-11.5-.4 0-.8 2.7-.9 6zm.6 9.7c-.4.3-.7 1.1-.7 1.7 0 .6.5.5 1.2-.2.6-.6.9-1.4.7-1.7-.3-.3-.9-.2-1.2.2zm-.7 6.3c0 .5.5 1 1 1 .6 0 1-.5 1-1 0-.6-.4-1-1-1-.5 0-1 .4-1 1zm-1 16.1c0 .5.5.7 1 .4.6-.3 1-.8 1-1.1 0-.2-.4-.4-1-.4-.5 0-1 .5-1 1.1zM211 494.7c0 1.2 6.5 4.3 8.8 4.3 1.1 0 .7-.6-1.4-1.9-3.9-2.4-7.4-3.5-7.4-2.4z"/></svg>